# xmcd
#
# Track frame offsets:
#	150
#	14002
#	30810
#	45661
#	63437
#	80835
#	93680
#	112669
#	136877
#	155981
#	172621
#	191763
#	208303
#	227974
#
# Disc length: 3381 seconds
#
# Revision: 0
# Processed by: cddbd v1.5.1PL0 Copyright (c) Steve Scherf et al.
# Submitted via: dBpowerAMP V4.0
#
DISCID=bc0d330e
DTITLE=Charlie Daniels - Renegade
DYEAR=1990
DGENRE=Country
TTITLE0=Orange Blossom Special
TTITLE1=A Few More Rednecks
TTITLE2=In Amerika
TTITLE3=South's Gonna Do It Again
TTITLE4=Still In Saigon
TTITLE5=Stroker Ace
TTITLE6=The Devil Went Down To Georgia
TTITLE7=Uneasy Rider
TTITLE8=A Country Boy Can Survive
TTITLE9=A Few More Redneck 2
TTITLE10=Legend Of Wooly Swamp
TTITLE11=Sittin'On Barstool
TTITLE12=Statesboro Blues
TTITLE13=Whiskey
EXTD=
EXTT0=
EXTT1=
EXTT2=
EXTT3=
EXTT4=
EXTT5=
EXTT6=
EXTT7=
EXTT8=
EXTT9=
EXTT10=
EXTT11=
EXTT12=
EXTT13=
PLAYORDER=
